<?xml version="1.0" standalone="no"?>
<!DOCTYPE svg PUBLIC "-//W3C//DTD SVG 20010904//EN"
 "http://www.w3.org/TR/2001/REC-SVG-20010904/DTD/svg10.dtd">
<svg version="1.0" xmlns="http://www.w3.org/2000/svg"
 width="1000.000000pt" height="1000.000000pt" viewBox="0 0 1000.000000 1000.000000"
 preserveAspectRatio="xMidYMid meet">
<metadata>
Created by potrace 1.14, written by Peter Selinger 2001-2017
</metadata>
<g transform="translate(0.000000,1000.000000) scale(0.100000,-0.100000)"
fill="#000000" stroke="none">
<path d="M7058 7046 c-1 -2 -28 -6 -58 -9 -217 -24 -449 -101 -665 -222 -262
-147 -510 -400 -676 -691 -119 -209 -219 -496 -259 -744 -7 -41 -14 -84 -16
-95 -30 -160 -21 -601 16 -800 6 -27 13 -68 16 -90 3 -22 8 -43 10 -46 2 -3 5
-19 8 -35 3 -17 19 -76 36 -132 67 -227 172 -437 309 -622 71 -96 246 -272
336 -338 39 -29 75 -55 80 -60 30 -24 148 -89 237 -132 158 -74 377 -137 573
-165 70 -10 468 -14 525 -5 30 5 73 11 95 14 245 35 487 124 680 251 256 169
424 385 486 624 22 85 26 169 9 200 -14 27 -69 28 -99 4 -11 -10 -41 -60 -66
-111 -67 -138 -136 -235 -244 -343 -252 -251 -563 -367 -986 -367 -131 0 -193
6 -349 34 -16 3 -68 19 -115 35 -47 16 -94 31 -104 33 -9 3 -66 30 -126 61
-380 198 -654 551 -792 1023 -11 37 -22 76 -24 87 -3 11 -9 41 -15 66 -14 58
-15 63 -24 124 -4 28 -10 61 -12 75 -27 164 -26 602 2 780 80 504 303 914 636
1168 123 94 377 210 494 227 16 2 47 7 69 12 50 10 362 11 432 1 365 -53 656
-233 890 -549 59 -80 164 -252 212 -346 59 -119 110 -151 178 -116 47 25 58
61 39 123 -8 25 -58 180 -111 345 -53 165 -115 356 -137 425 -79 246 -87 260
-147 260 -47 0 -67 -21 -114 -121 -38 -79 -64 -102 -110 -94 -13 3 -89 38
-169 79 -173 88 -348 145 -528 171 -46 7 -415 16 -422 11z"/>
<path d="M1193 6957 c-40 -8 -73 -38 -73 -67 0 -39 33 -59 140 -86 206 -52
249 -87 467 -385 152 -209 500 -686 610 -838 37 -51 98 -134 135 -185 37 -50
77 -106 90 -124 25 -36 48 -67 158 -215 40 -55 70 -104 67 -112 -3 -7 -122
-167 -264 -355 -142 -188 -268 -356 -280 -373 -19 -28 -450 -600 -502 -667
-10 -14 -37 -48 -58 -77 -65 -87 -159 -187 -216 -232 -68 -52 -131 -83 -227
-110 -118 -34 -148 -50 -159 -83 -12 -34 -3 -59 31 -82 19 -13 96 -15 569 -16
360 0 556 3 575 10 59 23 70 74 24 113 -32 28 -32 27 -203 57 -130 22 -193 44
-219 73 -17 19 -19 25 -21 60 -2 29 29 96 72 157 25 36 145 198 266 360 122
162 337 450 479 640 142 190 261 346 266 348 9 3 1007 -1363 1047 -1433 56
-98 15 -157 -136 -194 -48 -11 -94 -21 -103 -21 -30 0 -147 -40 -163 -56 -8
-8 -15 -30 -15 -49 0 -28 5 -35 35 -49 31 -15 100 -16 709 -14 647 3 675 4
695 22 21 19 27 50 15 81 -10 24 -50 41 -155 66 -136 31 -193 61 -269 138 -36
36 -176 217 -310 401 -134 184 -346 475 -470 645 -124 171 -246 338 -271 371
-24 34 -97 135 -162 224 -65 89 -121 168 -123 174 -3 9 240 346 329 456 7 8
156 206 332 440 175 234 345 459 377 500 133 169 250 266 358 296 133 37 180
56 200 81 34 43 12 95 -46 109 -21 6 -917 9 -1092 5 -40 -1 -82 -39 -82 -75 0
-30 47 -71 92 -80 18 -3 44 -8 58 -11 14 -3 61 -12 105 -20 208 -38 256 -81
210 -190 -13 -33 -74 -131 -102 -165 -11 -14 -320 -429 -555 -745 -53 -71
-146 -197 -206 -278 l-110 -149 -54 73 c-29 40 -91 126 -138 190 -165 227
-485 665 -550 754 -253 341 -271 373 -249 427 14 35 87 73 160 83 24 3 69 10
99 15 30 5 70 12 89 15 60 10 100 32 107 59 9 37 2 57 -28 79 -26 19 -43 20
-672 21 -355 1 -662 -2 -683 -7z"/>
</g>
</svg>
